<svg width="155" height="25" viewBox="0 0 155 25" fill="none" xmlns="http://www.w3.org/2000/svg">
<path d="M0.511353 19.1064L2.0265 16.3375C3.2382 17.0354 4.60252 17.4256 5.99999 17.4739C7.54166 17.4739 8.34468 17.0724 8.34468 16.2655C8.34468 15.5572 7.68181 15.1292 5.95453 14.8224C2.52272 14.186 1.03029 12.8602 1.03029 10.4663C1.03029 7.98145 3.20832 6.29963 6.49999 6.29963C8.24212 6.24535 9.9667 6.66144 11.4924 7.50417L9.93181 10.364C8.60605 9.67842 7.73105 9.43978 6.49999 9.4663C5.26893 9.49281 4.55681 9.84508 4.55681 10.4814C4.55681 11.1936 5.14772 11.5458 6.9962 11.9284C10.356 12.6367 11.8712 13.9852 11.8712 16.2807C11.8712 18.9587 9.59847 20.614 5.99999 20.614C4.06644 20.6431 2.16396 20.1258 0.511353 19.1216" fill="#318FCC"/>
<path d="M12.7727 2.58357C12.766 2.17191 12.882 1.76756 13.106 1.42212C13.33 1.07669 13.6519 0.805821 14.0305 0.644091C14.4092 0.482361 14.8274 0.437099 15.2318 0.514079C15.6363 0.59106 16.0086 0.786794 16.3014 1.0763C16.5941 1.36582 16.794 1.73598 16.8754 2.13956C16.9569 2.54314 16.9163 2.96184 16.7588 3.34223C16.6012 3.72263 16.334 4.04747 15.991 4.27531C15.6481 4.50315 15.2451 4.62365 14.8333 4.62145C14.2908 4.62148 13.77 4.40751 13.3843 4.02597C12.9985 3.64443 12.7787 3.12613 12.7727 2.58357V2.58357ZM13.0985 6.53812H16.625V20.3601H13.0985V6.53812Z" fill="#318FCC"/>
<path d="M29.2045 6.53825H32.1893V18.6102C32.1893 22.5648 29.3712 25.0004 24.8712 25.0004C22.3636 25.0004 20.2083 24.364 18.4318 23.0837L20.1591 20.3867C21.4963 21.3704 23.1127 21.9012 24.7727 21.9019C27.2575 21.9019 28.6553 20.6216 28.6553 18.3034V17.7807C27.731 19.061 26.2424 19.7466 24.4431 19.7466C20.7007 19.7466 17.7916 16.7163 17.7916 12.8564C17.7916 9.1178 20.6325 6.29962 24.4431 6.29962C25.2807 6.26217 26.1161 6.41052 26.8895 6.73403C27.663 7.05755 28.3552 7.54821 28.9166 8.17083L29.2045 6.53825ZM28.7083 13.0155C28.7083 10.9814 27.1439 9.46629 25.0378 9.46629C22.9318 9.46629 21.3447 10.9814 21.3447 13.0155C21.3447 15.0496 22.9091 16.5913 25.0378 16.5913C25.5172 16.6115 25.9957 16.5335 26.4439 16.3622C26.8921 16.1909 27.3005 15.9298 27.6442 15.595C27.9879 15.2601 28.2595 14.8586 28.4425 14.4151C28.6255 13.9715 28.7159 13.4953 28.7083 13.0155" fill="#318FCC"/>
<path d="M33.3712 13.4512C33.3479 12.0105 33.7539 10.5955 34.5376 9.3864C35.3213 8.1773 36.4471 7.22882 37.7717 6.6618C39.0963 6.09477 40.5597 5.93484 41.9755 6.2024C43.3913 6.46995 44.6954 7.15288 45.7217 8.16418C46.7481 9.17548 47.4501 10.4694 47.7385 11.8811C48.0269 13.2928 47.8886 14.7584 47.3412 16.0912C46.7937 17.424 45.8619 18.5637 44.6645 19.3651C43.4671 20.1665 42.0583 20.5934 40.6174 20.5913C39.6688 20.6106 38.726 20.4396 37.8446 20.0884C36.9633 19.7373 36.1612 19.2131 35.4857 18.5468C34.8103 17.8806 34.2752 17.0857 33.912 16.2092C33.5488 15.3327 33.3649 14.3923 33.3712 13.4436V13.4512ZM44.2841 13.4436C44.2796 12.7185 44.0604 12.0109 43.6542 11.4102C43.248 10.8095 42.673 10.3426 42.0017 10.0684C41.3304 9.79421 40.5929 9.72498 39.8823 9.86947C39.1717 10.014 38.5198 10.3657 38.0089 10.8803C37.4981 11.3949 37.151 12.0493 37.0117 12.7609C36.8723 13.4725 36.9468 14.2095 37.2259 14.8788C37.5049 15.5481 37.976 16.1197 38.5796 16.5216C39.1832 16.9234 39.8923 17.1375 40.6174 17.1368C41.1042 17.1478 41.5881 17.0596 42.0397 16.8775C42.4913 16.6955 42.9011 16.4234 43.2441 16.0779C43.5872 15.7324 43.8563 15.3206 44.0351 14.8677C44.2139 14.4148 44.2986 13.9303 44.2841 13.4436Z" fill="#318FCC"/>
<path d="M57.4167 6.48913V10.0649C56.9861 9.99211 56.5504 9.95286 56.1137 9.94746C53.8637 9.94746 52.7311 11.2959 52.7311 13.3566V20.3603H49.2008V6.53837H52.1629L52.447 8.31488C53.0497 7.61045 53.8232 7.07262 54.6934 6.75292C55.5636 6.43323 56.5013 6.3424 57.4167 6.48913" fill="#318FCC"/>
<path d="M68.7803 19.5567C67.9281 20.2423 66.7425 20.5983 65.2993 20.5983C62.3902 20.5983 60.6591 18.8483 60.6591 15.9809L60.6857 9.78015H58.697V6.53773H60.6857V4.30288L64.2349 3.65137V6.53773H67.9054V9.78015H64.2122V15.7688C64.2122 16.765 64.7576 17.3559 65.7008 17.3559C66.2546 17.3853 66.7981 17.1978 67.216 16.8332L68.7803 19.5567Z" fill="#318FCC"/>
<path d="M79.9622 6.53832H82.966V20.3603H79.9622L79.7008 18.7277C79.1471 19.3156 78.4792 19.7841 77.7379 20.1046C76.9967 20.4251 76.1978 20.5907 75.3902 20.5914C71.6289 20.5914 68.5493 17.4664 68.5493 13.4436C68.5493 9.4209 71.6289 6.2959 75.3902 6.2959C76.198 6.2977 76.9968 6.46423 77.738 6.78532C78.4792 7.10641 79.1471 7.5753 79.7008 8.16332L79.9622 6.53832ZM79.4622 13.4512C79.4577 12.7261 79.2385 12.0185 78.8323 11.4178C78.4261 10.8172 77.8511 10.3502 77.1798 10.076C76.5085 9.80182 75.771 9.73259 75.0604 9.87708C74.3498 10.0216 73.698 10.3733 73.1871 10.8879C72.6762 11.4025 72.3291 12.0569 72.1898 12.7685C72.0504 13.4801 72.125 14.2171 72.404 14.8864C72.683 15.5557 73.1541 16.1273 73.7577 16.5292C74.3613 16.931 75.0704 17.1451 75.7955 17.1444C76.2823 17.1554 76.7662 17.0672 77.2178 16.8852C77.6694 16.7031 78.0792 16.431 78.4223 16.0855C78.7653 15.74 79.0344 15.3282 79.2132 14.8753C79.392 14.4224 79.4767 13.9379 79.4622 13.4512" fill="#318FCC"/>
<path d="M84.7349 20.3635V6.53772H87.7197L88.0038 8.21954C88.4882 7.61351 89.1042 7.12566 89.8051 6.79293C90.506 6.4602 91.2734 6.29132 92.0493 6.29908C94.2273 6.29908 95.8599 7.15136 96.8068 8.71575C97.3193 7.96519 98.0085 7.35218 98.8137 6.93075C99.6189 6.50932 100.515 6.29239 101.424 6.29908C104.879 6.29908 107.034 8.57181 107.034 12.2195V20.3635H103.485V13.0718C103.485 10.8711 102.538 9.70817 100.712 9.70817C98.7008 9.70817 97.6364 11.0832 97.6364 13.7347V20.3635H94.1099V13.0718C94.1099 10.8711 93.1629 9.70817 91.3182 9.70817C89.3296 9.70817 88.2614 11.0832 88.2614 13.7347V20.3635H84.7349Z" fill="#318FCC"/>
<path d="M108.754 17.9168C108.749 17.4377 108.886 16.9679 109.148 16.567C109.41 16.1661 109.786 15.8523 110.227 15.6653C110.668 15.4783 111.155 15.4267 111.625 15.5169C112.096 15.6071 112.529 15.8352 112.87 16.1721C113.21 16.509 113.443 16.9395 113.539 17.409C113.634 17.8785 113.588 18.3658 113.406 18.8089C113.224 19.252 112.914 19.631 112.516 19.8978C112.118 20.1645 111.65 20.3069 111.17 20.307C110.534 20.309 109.922 20.0587 109.469 19.6107C109.016 19.1628 108.759 18.5538 108.754 17.9168" fill="#FF7300"/>
<path d="M128.477 12.22V20.3602H124.951V13.0723C124.951 10.845 123.932 9.70864 121.97 9.70864C119.837 9.70864 118.701 11.1291 118.701 13.7352V20.3602H115.174V6.53818H118.159L118.417 8.14803C118.966 7.55574 119.633 7.08546 120.376 6.76767C121.119 6.44989 121.92 6.29169 122.727 6.30333C126.299 6.30333 128.477 8.54955 128.477 12.22Z" fill="#318FCC"/>
<path d="M143.402 14.2914H133.174C133.621 16.0679 135.136 17.2043 137.246 17.2043C138.503 17.2499 139.728 16.7996 140.655 15.9505L142.739 18.2459C142.003 18.9401 141.137 19.48 140.189 19.8339C139.242 20.1878 138.234 20.3485 137.224 20.3065C132.773 20.3065 129.674 17.4164 129.674 13.2497C129.65 12.2952 129.819 11.3457 130.172 10.4586C130.525 9.5714 131.055 8.765 131.728 8.08809C132.401 7.41117 133.205 6.87778 134.09 6.52015C134.976 6.16251 135.924 5.98804 136.879 6.0073C140.735 6.0073 143.508 8.77624 143.508 12.6588C143.533 13.205 143.5 13.7522 143.409 14.2914H143.402ZM140.121 11.6171C140.049 10.1247 138.724 9.10957 136.852 9.10957C134.981 9.10957 133.731 10.0565 133.231 11.6171H140.121Z" fill="#318FCC"/>
<path d="M154.205 19.2655C153.352 19.9511 152.17 20.3072 150.723 20.3072C147.814 20.3072 146.087 18.5534 146.087 15.6898L146.11 9.48902H144.121V6.2466H146.11V3.9966L149.659 3.35645V6.2466H153.33V9.48902H149.636V15.4777C149.636 16.4701 150.182 17.061 151.129 17.061C151.682 17.0902 152.225 16.9043 152.644 16.542L154.205 19.2655Z" fill="#318FCC"/>
</svg>
